<svg width="24" height="22" viewBox="0 0 24 22" fill="none" xmlns="http://www.w3.org/2000/svg">
<path fill-rule="evenodd" clip-rule="evenodd" d="M12.1252 5.97553C15.5213 5.97553 18.9173 5.97503 22.3133 5.97767C22.424 5.97775 22.4647 5.95789 22.4627 5.84343C22.4552 5.40885 22.4627 4.97407 22.4591 4.53939C22.4525 3.72269 21.7813 3.0864 20.9218 3.0826C20.2566 3.07967 19.5913 3.08363 18.9261 3.07991C18.8349 3.07938 18.8096 3.10215 18.8111 3.18859C18.8167 3.50905 18.8143 3.82963 18.8131 4.15017C18.8115 4.5673 18.4745 4.89277 18.0448 4.89385C17.6176 4.89496 17.2785 4.56786 17.2762 4.14985C17.2744 3.84251 17.2695 3.53495 17.2789 3.22784C17.2826 3.10869 17.249 3.07885 17.1218 3.07901C14.0608 3.0827 10.9997 3.08189 7.93862 3.08189C7.5711 3.08189 7.20355 3.0851 6.83611 3.0797C6.74271 3.07833 6.72169 3.10513 6.72298 3.18904C6.72798 3.5139 6.72784 3.83889 6.7241 4.16378C6.71937 4.57179 6.37468 4.89617 5.95442 4.8938C5.52849 4.8914 5.19 4.57023 5.18743 4.16283C5.18539 3.8423 5.18218 3.52166 5.18989 3.20128C5.19232 3.10091 5.16264 3.07872 5.05958 3.07946C4.40831 3.08418 3.75699 3.08075 3.1057 3.0822C2.21155 3.08416 1.54209 3.71889 1.53994 4.56577C1.53888 4.98291 1.54793 5.40026 1.53564 5.81707C1.53144 5.95863 1.58055 5.9783 1.71388 5.97817C5.14247 5.97482 8.57105 5.97553 11.9996 5.97553H12.1252ZM1.68532 7.42505C1.57468 7.42494 1.5367 7.4433 1.53684 7.55776C1.54044 11.0526 1.53997 15.5217 1.53972 19.0165C1.53972 19.1354 1.5479 19.2536 1.57568 19.3694C1.74319 20.0667 2.34947 20.5219 3.11232 20.522C9.02451 20.5223 14.9367 20.5222 20.8489 20.5221C21.7995 20.5221 22.4598 19.8986 22.4599 19.0001C22.4601 15.5184 22.459 11.0625 22.4631 7.58085C22.4633 7.45325 22.4306 7.42415 22.2966 7.42428C18.8684 7.42816 15.4401 7.42734 12.0119 7.42734C8.56971 7.42734 5.12751 7.42787 1.68532 7.42505ZM3.12213 21.9731C1.6173 21.9728 0.393659 21.0479 0.0661259 19.6618C0.0205731 19.4691 0.000507558 19.2722 0.000507558 19.0742C0.000311933 14.5515 -0.00077798 9.05458 0.0010106 4.5319C0.00159747 3.06601 1.14682 1.84417 2.68706 1.6534C2.81229 1.63788 2.93693 1.63174 3.06249 1.63169C3.7324 1.63142 4.4023 1.6301 5.07221 1.6334C5.16086 1.63382 5.19157 1.61512 5.18939 1.5259C5.18282 1.25818 5.18528 0.990247 5.18749 0.722392C5.19081 0.321586 5.52732 0.00284477 5.94679 0.000233223C6.37309 -0.0024047 6.71943 0.316732 6.72418 0.720757C6.7274 0.992964 6.72765 1.26528 6.72332 1.53743C6.72211 1.61156 6.74411 1.64292 6.82376 1.63203C6.84653 1.62892 6.8702 1.63155 6.89348 1.63155C10.2988 1.63155 13.7042 1.63045 17.1095 1.63533C17.2566 1.63554 17.2844 1.59597 17.2789 1.46919C17.2681 1.2237 17.2745 0.977506 17.2761 0.731625C17.2788 0.324065 17.618 0.000839946 18.0416 0.000101327C18.4695 -0.000637293 18.8095 0.317708 18.8128 0.724846C18.8148 0.979485 18.8191 1.23436 18.8104 1.48879C18.8067 1.59908 18.8289 1.63659 18.9585 1.63506C19.6097 1.62744 20.2611 1.63121 20.9124 1.63161C22.5162 1.63264 23.8273 2.75497 23.9802 4.25901C23.9921 4.37674 23.9991 4.49542 23.9991 4.61368C24 9.10562 24.0008 14.5718 23.9986 19.0638C23.9983 19.7147 23.7948 20.3076 23.3702 20.8235C22.7496 21.5775 21.9281 21.9691 20.9165 21.9711C17.9438 21.9769 14.9711 21.9732 11.9984 21.9732C9.03963 21.9732 6.08088 21.9736 3.12213 21.9731Z" fill="#F65261"/>
</svg>
